<svg id="Layer_1" data-name="Layer 1" xmlns="http://www.w3.org/2000/svg" width="4.1in" height="4.3in" viewBox="0 0 298.7 309.9"><title>instagram</title><path d="M229,1.7H78S11.1,6.6,0,81.1V228s4.2,62,60.6,77.3c0,0,36.4,6.3,89.2,3.5l68.8.7s71.7-3.5,80.1-80.1V78.3S298,16.4,229,1.7Zm-9.7,283.3H80.1C29.9,280.9,23,226.6,23,226.6V81.8C33.4,24.7,81.5,24.4,81.5,24.4H221c52.2,9.7,55.2,56.4,55.2,56.4l.9,142.4C272.9,281.6,219.3,285.1,219.3,285.1Z" fill="#fff"/><path d="M150,71.6A82.9,82.9,0,1,0,233,154.6,82.9,82.9,0,0,0,150,71.6Zm.9,135.9a53.9,53.9,0,1,1,53.9-53.9A53.9,53.9,0,0,1,150.9,207.5Z" fill="#fff"/><circle cx="232.7" cy="69.8" r="19.7" fill="#fff"/></svg>