<svg id="Layer_1" data-name="Layer 1" xmlns="http://www.w3.org/2000/svg" width="4.1in" height="4.1in" viewBox="0 0 298.7 298"><title>twitter</title><path d="M252.9,0H45A45,45,0,0,0,0,45V252.9a45,45,0,0,0,45,45H252.9a45,45,0,0,0,45-45V45A45,45,0,0,0,252.9,0ZM240.1,103.4c2.4,82.3-60.7,117.1-60.7,117.1-74.3,45.8-142-.6-142-.6,43.8,4.7,68.4-19.4,68.4-19.4-34-.9-43.1-31.9-43.1-31.9,21.5,2.2,20.3-1.2,20.3-1.2-39.5-10.7-36.6-45.8-36.6-45.8,15.9,7.9,20.4,5.5,20.4,5.5C31.3,99.9,53,65.5,53,65.5c43.4,51.3,95.1,48.2,95.1,48.2-3.5-12.2,0-43.6,30-53.8s49.5,11.9,49.5,11.9c15.3-2.4,29.3-11,29.3-11-6.7,19.3-20.2,25.5-20.2,25.5,11.5-.6,26.5-7.3,26.5-7.3C260.1,86.9,240.1,103.4,240.1,103.4Z" fill="#fff"/></svg>